<svg xmlns="http://www.w3.org/2000/svg" viewBox="0 0 427.64 181.73"><defs><style>.cls-1{fill:#3c3c3b;}.cls-2{fill:#07706d;}.cls-3{fill:#85bd48;}</style></defs><title>Asset 2</title><g id="Layer_2" data-name="Layer 2"><g id="Layer_1-2" data-name="Layer 1"><path class="cls-1" d="M205.32,47.68v17a10.21,10.21,0,0,1-10.21,10.21H171.92V22.72h-8.16a3.17,3.17,0,0,0-3.17,3.17v49H135.87v-7a29,29,0,0,0-29-29h-10V47a3.18,3.18,0,0,0,3.18,3.18h6.78a17.69,17.69,0,0,1,17.69,17.69v7H95a3.17,3.17,0,0,0-3.17,3.18v8.15h103.3a21.54,21.54,0,0,0,21.54-21.54V44.5H208.5a3.19,3.19,0,0,0-3.18,3.18"/><path class="cls-1" d="M82,74.89H21.55A10.22,10.22,0,0,1,11.33,64.67V47.74a3.18,3.18,0,0,0-3.17-3.18H0V64.67A21.54,21.54,0,0,0,21.55,86.21h63.6V78.06A3.16,3.16,0,0,0,82,74.89"/><path class="cls-1" d="M184,91.36a6.18,6.18,0,1,0,6.18,6.18A6.18,6.18,0,0,0,184,91.36"/><path class="cls-1" d="M52.23,91.36a6.18,6.18,0,1,0,6.18,6.18,6.18,6.18,0,0,0-6.18-6.18"/><path class="cls-1" d="M38.84,91.36A6.18,6.18,0,1,0,45,97.54a6.18,6.18,0,0,0-6.18-6.18"/><path class="cls-1" d="M5.09,122.14C7.26,118,12.22,116,16.56,116c8.75,0,15.51,5.58,15.51,15.88,0,10.11-6.76,15.88-15.57,15.88a12.87,12.87,0,0,1-11.41-6.14l-.25,5.58H0V106.33H5.09Zm.25,9.68c0,6.7,4.77,11.17,10.85,11.17S27,139,27,131.88s-4.84-11.1-10.8-11.1a10.63,10.63,0,0,0-10.85,11"/><path class="cls-1" d="M67.81,147.33l-.12-5.58A13,13,0,0,1,56.4,148c-8.81,0-15.7-6.08-15.7-16.07s7-15.88,15.76-15.82c4.59,0,9.12,2.11,11.35,6.08l.06-5.58h5V147.2h-4.9ZM56.64,120.9c-6.08,0-11,4.34-11,11.17s4.9,11.23,11,11.23c14.77,0,14.77-22.46.07-22.46Z"/><rect class="cls-1" x="85.62" y="106.33" width="5.09" height="40.88"/><path class="cls-1" d="M128.67,147.33l-.12-5.58a13,13,0,0,1-11.29,6.2c-8.81,0-15.7-6.08-15.7-16.07s7-15.88,15.76-15.82c4.59,0,9.12,2.11,11.35,6.08l.07-5.58h5V147.2h-4.9ZM117.51,120.9c-6.08,0-11,4.34-11,11.17s4.9,11.23,11,11.23c14.76,0,14.76-22.46.06-22.46Z"/><path class="cls-1" d="M176.26,106.27v40.87h-4.78l-.24-5.58a13,13,0,0,1-11.48,6.2c-8.75,0-15.51-5.77-15.51-15.88,0-10.3,6.76-15.88,15.45-15.88,4.34,0,9.3,2,11.47,6.14V106.33h5Zm-16.13,14.45c-5.95,0-10.79,3.9-10.79,11.1s4.84,11.1,10.79,11.1S171,138.46,171,131.76a10.66,10.66,0,0,0-10.92-11Z"/><polygon class="cls-1" points="211.07 116.57 204.31 132.56 201.02 141.25 197.67 132.5 191.65 116.57 185.88 116.57 198.23 146.77 192.97 159.01 198.43 159.01 216.65 116.57 211.07 116.57"/><path class="cls-2" d="M337,0V20.48c-1,.95-3.31,4.05-6.24,13.86a.36.36,0,0,1-.56.2c-1.8-1.37-9.69-6.47-22.89-1.83a.35.35,0,0,0,0,.66c1.81.76,6.09,2.77,8.5,5.5a.35.35,0,0,1-.29.58c-5-.16-33.39.56-55.21,34.92a.35.35,0,0,0,.5.48c5.41-3.79,24.83-16.45,41.84-15.07a.35.35,0,0,1,.12.67c-6.11,2.84-33.15,17.71-39.35,60.12a.36.36,0,0,0,.66.24c3.81-6.73,19.2-31.92,40.49-40.85a.36.36,0,0,1,.42.56c-4.14,5.07-20.45,27.65-16.91,65a.35.35,0,0,0,.69.07c2.23-7.19,11.63-35.49,27.27-52.64a.35.35,0,0,1,.61.29c-1,6.47-5.69,38.26-.16,63.21a.36.36,0,0,0,.71-.05c.89-9.37,4.94-46.57,13.25-57.95a.37.37,0,0,1,.28-.14l.31,0,1.82,22.78h-3.13l2.44,30.51h-3l1.53,30.14A91,91,0,0,1,337,0"/><path class="cls-3" d="M337.05,0V20.48c1,.95,3.31,4.05,6.24,13.86a.36.36,0,0,0,.56.2c1.8-1.37,9.69-6.47,22.89-1.83a.35.35,0,0,1,0,.66c-1.82.76-6.1,2.77-8.51,5.5a.36.36,0,0,0,.29.58c5-.16,33.39.56,55.22,34.92a.36.36,0,0,1-.51.48c-5.41-3.79-24.83-16.45-41.84-15.07a.35.35,0,0,0-.12.67c6.11,2.84,33.15,17.71,39.36,60.12a.36.36,0,0,1-.67.24c-3.81-6.73-19.2-31.92-40.49-40.85a.36.36,0,0,0-.41.56c4.13,5.07,20.44,27.65,16.9,65a.35.35,0,0,1-.68.07C383.07,138.41,373.66,110.11,358,93a.35.35,0,0,0-.61.29c1,6.47,5.7,38.26.16,63.21a.36.36,0,0,1-.7-.05c-.9-9.37-4.95-46.57-13.25-57.95a.37.37,0,0,0-.29-.14l-.31,0-1.81,22.78h3.13l-2.45,30.51h3l-1.53,30.14A91,91,0,0,0,337.05,0"/></g></g></svg>